<svg xmlns="http://www.w3.org/2000/svg" width="640" height="480" viewBox="0 0 640 480" role="img" aria-label="รูปสินค้า">
  <defs>
    <linearGradient id="bg" x1="0" y1="0" x2="1" y2="1">
      <stop offset="0" stop-color="#eef2ff"/>
      <stop offset="0.55" stop-color="#ffffff"/>
      <stop offset="1" stop-color="#f0fdf4"/>
    </linearGradient>
    <linearGradient id="plate" x1="0" y1="0" x2="0" y2="1">
      <stop offset="0" stop-color="#ffffff"/>
      <stop offset="1" stop-color="#f8fafc"/>
    </linearGradient>
  </defs>
  <rect width="640" height="480" rx="28" fill="url(#bg)"/>
  <path d="M86 92h468M86 388h468" stroke="#e2e8f0" stroke-width="3" stroke-linecap="round" stroke-dasharray="14 16"/>
  <ellipse cx="320" cy="240" rx="158" ry="132" fill="url(#plate)" stroke="#c7d2fe" stroke-width="10"/>
  <ellipse cx="320" cy="240" rx="102" ry="82" fill="#ffffff" stroke="#f1f5f9" stroke-width="8"/>
  <path d="M246 245c20-44 74-66 120-44 22 10 38 29 45 50-28 22-67 33-104 25-25-5-46-16-61-31z" fill="#f97316"/>
  <path d="M264 204c28-22 67-24 99-6-9 24-30 43-56 50-24 6-49 0-68-14 4-12 13-23 25-30z" fill="#22c55e"/>
  <path d="M358 265c22-8 47 4 55 27 8 22-4 47-27 55-22 8-47-4-55-27-8-22 5-47 27-55z" fill="#3b82f6"/>
  <path d="M232 302h174" stroke="#ef4444" stroke-width="18" stroke-linecap="round"/>
  <path d="M232 330h142" stroke="#eab308" stroke-width="18" stroke-linecap="round"/>
  <text x="320" y="412" text-anchor="middle" font-family="'Noto Sans Thai', Arial, sans-serif" font-size="32" font-weight="700" fill="#64748b">รูปสินค้า</text>
</svg>
